<svg width="820" height="300" viewBox="0 0 820 300" fill="none" xmlns="http://www.w3.org/2000/svg">
  <rect width="820" height="300" rx="24" fill="#EAF6FD"/>
  <rect x="50" y="46" width="286" height="208" rx="20" fill="white"/>
  <rect x="80" y="84" width="110" height="110" rx="20" fill="#0C6B8A"/>
  <path d="M118 102H152V136H186V170H152V204H118V170H84V136H118V102Z" fill="white"/>
  <rect x="230" y="90" width="78" height="12" rx="6" fill="#C6E8F7"/>
  <rect x="230" y="114" width="122" height="10" rx="5" fill="#D9EEF9"/>
  <rect x="230" y="138" width="92" height="10" rx="5" fill="#D9EEF9"/>
  <rect x="358" y="46" width="412" height="208" rx="20" fill="white"/>
  <rect x="392" y="82" width="152" height="12" rx="6" fill="#C6E8F7"/>
  <rect x="392" y="108" width="210" height="10" rx="5" fill="#D9EEF9"/>
  <rect x="392" y="130" width="180" height="10" rx="5" fill="#D9EEF9"/>
  <rect x="392" y="182" width="156" height="34" rx="10" fill="#0C6B8A"/>
</svg>