<svg width="820" height="300" viewBox="0 0 820 300" fill="none" xmlns="http://www.w3.org/2000/svg">
  <rect width="820" height="300" rx="24" fill="#EAF6FD"/>
  <circle cx="132" cy="146" r="88" fill="white"/>
  <circle cx="132" cy="124" r="28" fill="#0C6B8A"/>
  <path d="M80 214C87 175 108 156 132 156C156 156 177 175 184 214" stroke="#0C6B8A" stroke-width="6" stroke-linecap="round"/>
  <rect x="276" y="46" width="468" height="72" rx="18" fill="white"/>
  <rect x="316" y="70" width="176" height="10" rx="5" fill="#C6E8F7"/>
  <rect x="316" y="88" width="122" height="10" rx="5" fill="#D9EEF9"/>
  <rect x="276" y="140" width="220" height="110" rx="18" fill="white"/>
  <rect x="516" y="140" width="228" height="110" rx="18" fill="white"/>
  <rect x="308" y="172" width="152" height="10" rx="5" fill="#C6E8F7"/>
  <rect x="308" y="196" width="112" height="10" rx="5" fill="#C6E8F7"/>
  <rect x="548" y="172" width="150" height="10" rx="5" fill="#C6E8F7"/>
  <rect x="548" y="196" width="116" height="10" rx="5" fill="#C6E8F7"/>
</svg>