<svg width="820" height="300" viewBox="0 0 820 300" fill="none" xmlns="http://www.w3.org/2000/svg">
  <rect width="820" height="300" rx="24" fill="#EAF6FD"/>
  <rect x="44" y="38" width="420" height="224" rx="18" fill="white"/>
  <rect x="74" y="74" width="360" height="18" rx="9" fill="#98CCE3"/>
  <rect x="74" y="114" width="300" height="12" rx="6" fill="#C3E5F6"/>
  <rect x="74" y="142" width="270" height="12" rx="6" fill="#C3E5F6"/>
  <rect x="74" y="170" width="320" height="12" rx="6" fill="#C3E5F6"/>
  <rect x="74" y="208" width="150" height="30" rx="8" fill="#0C6B8A"/>
  <circle cx="630" cy="156" r="86" fill="white"/>
  <rect x="592" y="118" width="76" height="76" rx="14" fill="#0C6B8A"/>
  <rect x="604" y="106" width="12" height="24" rx="6" fill="#0C6B8A"/>
  <rect x="644" y="106" width="12" height="24" rx="6" fill="#0C6B8A"/>
  <rect x="608" y="148" width="44" height="8" rx="4" fill="white"/>
  <rect x="608" y="164" width="32" height="8" rx="4" fill="white"/>
</svg>