<svg width="820" height="300" viewBox="0 0 820 300" fill="none" xmlns="http://www.w3.org/2000/svg">
  <rect width="820" height="300" rx="24" fill="#DFF1FB"/>
  <rect x="36" y="44" width="250" height="210" rx="16" fill="white"/>
  <rect x="316" y="44" width="220" height="96" rx="16" fill="white"/>
  <rect x="316" y="158" width="220" height="96" rx="16" fill="white"/>
  <rect x="560" y="44" width="224" height="210" rx="16" fill="white"/>
  <rect x="66" y="78" width="184" height="12" rx="6" fill="#A8D8EC"/>
  <rect x="66" y="102" width="148" height="12" rx="6" fill="#C6E8F7"/>
  <rect x="66" y="144" width="168" height="12" rx="6" fill="#C6E8F7"/>
  <rect x="66" y="168" width="126" height="12" rx="6" fill="#C6E8F7"/>
  <circle cx="672" cy="104" r="34" fill="#0C6B8A"/>
  <path d="M663 93H681V104H692V122H681V133H663V122H652V104H663V93Z" fill="white"/>
</svg>