<svg width="820" height="420" viewBox="0 0 820 420" fill="none" xmlns="http://www.w3.org/2000/svg">
  <rect width="820" height="420" rx="24" fill="#EAF6FD"/>
  <circle cx="680" cy="94" r="82" fill="#CBE9F7"/>
  <circle cx="138" cy="336" r="110" fill="#D9EEF9"/>
  <rect x="76" y="82" width="296" height="244" rx="20" fill="white"/>
  <rect x="110" y="120" width="122" height="14" rx="7" fill="#9BCFE4"/>
  <rect x="110" y="150" width="196" height="10" rx="5" fill="#C6E8F7"/>
  <rect x="110" y="176" width="168" height="10" rx="5" fill="#C6E8F7"/>
  <rect x="110" y="210" width="116" height="34" rx="10" fill="#0C6B8A"/>
  <rect x="452" y="86" width="280" height="230" rx="22" fill="white"/>
  <rect x="486" y="126" width="214" height="12" rx="6" fill="#C6E8F7"/>
  <rect x="486" y="154" width="180" height="12" rx="6" fill="#C6E8F7"/>
  <rect x="486" y="194" width="214" height="48" rx="12" fill="#0C6B8A"/>
  <path d="M598 178L617 197L649 165" stroke="white" stroke-width="6" stroke-linecap="round" stroke-linejoin="round"/>
</svg>